
<svg xmlns="http://www.w3.org/2000/svg" width="121" height="40" viewBox="0 0 121 40">
  <g fill="none" fill-rule="evenodd">
    <g fill="#FFFFFE" transform="translate(10 13)">
      <polyline points="38.156 13.486 38.745 10.47 35.819 10.47 36.158 8.668 38.727 8.668 39.298 5.742 36.729 5.742 37.068 4.011 39.941 4.011 40.53 .995 34.481 .995 32.054 13.486 38.156 13.486"/>
      <polyline points="13.328 13.486 14.496 10.47 11.672 10.47 13.51 .995 10.334 .995 7.907 13.486 13.328 13.486"/>
      <polyline points="4.699 8.704 7.847 8.704 8.418 5.778 5.27 5.778 5.609 4.011 9.061 4.011 9.65 .995 3.021 .995 .595 13.486 3.771 13.486 4.699 8.704"/>
      <polyline points="26.683 7.687 27.379 11.095 27.415 11.095 29.431 7.687 28.307 13.486 31.376 13.486 33.803 .995 30.751 .995 28.61 4.618 27.861 .995 24.916 .995 22.49 13.486 25.559 13.486 26.683 7.687"/>
      <path d="M19.9301521,5.15304183 L19.7160076,8.88225095 L18.6810875,8.88225095 L19.9301521,5.15304183 Z M17.1466084,13.4858555 L17.8245932,11.469635 L19.5733004,11.469635 L19.4662281,13.4858555 L22.5709886,13.4858555 L22.6245247,0.977726236 L18.8059772,0.977726236 L14.0061293,13.4858555 L17.1466084,13.4858555 L17.1466084,13.4858555 Z"/>
      <polyline points="62.352 13.491 62.941 10.475 60.014 10.475 60.352 8.672 62.923 8.672 63.494 5.745 60.924 5.745 61.263 4.013 64.188 4.013 64.778 .997 58.674 .997 56.247 13.491 62.352 13.491"/>
      <polyline points="66.083 13.491 67.1 8.279 67.885 13.491 70.866 13.491 73.293 .997 70.241 .997 69.277 5.905 68.581 .997 65.458 .997 63.03 13.491 66.083 13.491"/>
      <polyline points="75.132 4.031 73.293 13.491 76.47 13.491 78.309 4.031 80.058 4.031 80.665 .997 73.989 .997 73.383 4.031 75.132 4.031"/>
      <path d="M91.9253992,8.88618251 L90.8906464,8.88618251 L92.1395437,5.15571863 L91.9253992,8.88618251 Z M91.0152852,0.979064639 L86.4663878,12.8338859 L86.5709506,13.4912928 L89.3556654,13.4912928 L90.0340684,11.4743194 L91.7831939,11.4743194 L91.6761217,13.4912928 L94.7812167,13.4912928 L94.8355894,0.979064639 L91.0152852,0.979064639 L91.0152852,0.979064639 Z"/>
      <path d="M84.1258555,6.86929278 C83.893308,7.10125475 83.661597,7.17269202 83.3228137,7.17269202 L83.2508745,7.17269202 L83.9292776,3.74562738 L84.0187833,3.74562738 C84.2504943,3.74562738 84.4111027,3.81706464 84.5365779,3.94203802 C84.6971863,4.10264639 84.768289,4.40604563 84.768289,4.70952852 C84.768289,5.26287452 84.6076806,6.38738403 84.1258555,6.86929278 Z M86.8026616,7.94018251 C87.641673,7.10125475 88.069962,5.88757414 88.069962,4.40604563 C88.069962,3.38869202 87.7847148,2.62120152 87.2317871,2.06785551 C86.4998479,1.336 85.3036502,0.996882129 83.6256274,0.996882129 L81.3235741,0.996882129 L78.8960456,13.4912928 L82.0371103,13.4912928 L82.7690494,9.72511027 L82.805019,9.72511027 L83.233308,13.4912928 L86.5709506,13.4912928 L85.8038783,8.67203802 C86.1786312,8.47571103 86.5174144,8.22584791 86.8026616,7.94018251 L86.8026616,7.94018251 Z"/>
      <polyline points="101.207 10.475 98.744 10.475 100.582 .997 97.405 .997 94.978 13.491 100.618 13.491 101.207 10.475"/>
      <path d="M38.9775513 12.7427072L39.5845171 9.65450951C40.5305171 10.2971103 41.2445551 10.6720304 41.9943118 10.6720304 42.5298403 10.6720304 42.8689582 10.3685475 42.8689582 9.92227376 42.8689582 9.52953612 42.6012776 9.20823574 42.1549202 8.726327 41.1195817 7.60173384 40.3520076 6.60203042 40.3520076 5.15613688 40.3520076 3.81731559 40.7982814 2.67490494 41.6194753 1.85379468 42.3155285 1.15765779 43.2259772.800555133 44.3862053.800555133 45.6001369.800555133 46.4926844 1.13975665 47.1888213 1.55031179L46.5818555 4.62060837C45.9036198 4.1743346 45.1716806 3.81731559 44.4577262 3.81731559 43.9043802 3.81731559 43.5650951 4.13869962 43.5650951 4.58497338 43.5650951 5.01334601 43.7971407 5.28111027 44.2791331 5.79873764 45.3145551 6.90551331 46.0999468 7.94085171 46.0999468 9.36892776 46.0999468 10.7076654 45.653673 11.8144411 44.8324791 12.6355513 44.1363422 13.3317719 43.208076 13.6887072 42.0122129 13.6887072 40.7269278 13.6887072 39.7451255 13.2603346 38.9775513 12.7427072M50.0798099 9.26177186C50.0798099 6.88761217 50.9009202 3.72806084 52.5431407 2.0858403 53.3821521 1.2468289 54.3817719.818456274 55.5778023.818456274 56.6308745.818456274 57.3093612 1.0505019 57.8805247 1.37180228L57.2557414 4.45991635C56.7915665 4.10298099 56.2917567 3.85303422 55.7384106 3.85303422 55.345673 3.85303422 55.0243726 3.9780076 54.6853384 4.31712548 53.8283422 5.17403802 53.2928973 7.79797719 53.2928973 8.9940076 53.2928973 10.2257567 53.8105247 10.7076654 54.7566084 10.7076654 55.2028821 10.7076654 55.5778023 10.6005932 56.1846008 10.35073L55.5956198 13.2781521C55.0421901 13.5459163 54.5246464 13.6708897 53.8640608 13.6708897 51.4364487 13.6708897 50.0798099 12.0643042 50.0798099 9.26177186"/>
    </g>
    <rect width="120" height="39" x=".5" y=".5" stroke="#FFF" rx="2"/>
  </g>
</svg>
