<?xml version="1.0" encoding="UTF-8"?>
<svg width="15px" height="15px" viewBox="0 0 15 15" version="1.1" xmlns="http://www.w3.org/2000/svg" xmlns:xlink="http://www.w3.org/1999/xlink">
    <!-- Generator: sketchtool 53 (72520) - https://sketchapp.com -->
    <title>1B5901EB-B90A-4CF6-98C2-20AE545E094C</title>
    <desc>Created with sketchtool.</desc>
    <g id="Desktop" stroke="none" stroke-width="1" fill="none" fill-rule="evenodd">
        <g id="Search" transform="translate(-1285.000000, -65.000000)">
            <g id="Header/general" transform="translate(0.000000, 40.000000)">
                <g id="header-desktop">
                    <g id="ic_instagram" transform="translate(1283.000000, 23.000000)">
                        <rect id="Rectangle" fill-rule="nonzero" x="0" y="0" width="19" height="19"></rect>
                        <path d="M9.56465517,3.35775862 C11.5689655,3.35775862 11.8275862,3.35775862 12.6034483,3.42241379 C13.3146552,3.48706897 13.7025862,3.55172414 14.0258621,3.68103448 C14.3491379,3.81034483 14.6724138,4.00431034 14.8663793,4.26293103 C15.125,4.52155172 15.3189655,4.78017241 15.4482759,5.10344828 C15.5775862,5.36206897 15.6422414,5.75 15.7068966,6.52586207 C15.7715517,7.30172414 15.7715517,7.56034483 15.7715517,9.56465517 C15.7715517,11.5689655 15.7715517,11.8275862 15.7068966,12.6034483 C15.6422414,13.3146552 15.5775862,13.7025862 15.4482759,14.0258621 C15.1896552,14.6724138 14.6724138,15.1896552 14.0258621,15.4482759 C13.7672414,15.5775862 13.3793103,15.6422414 12.6034483,15.7068966 C11.8275862,15.7715517 11.5689655,15.7715517 9.56465517,15.7715517 C7.56034483,15.7715517 7.30172414,15.7715517 6.52586207,15.7068966 C5.81465517,15.6422414 5.42672414,15.5775862 5.10344828,15.4482759 C4.78017241,15.3189655 4.45689655,15.125 4.26293103,14.8663793 C4.00431034,14.6077586 3.81034483,14.3491379 3.68103448,14.0258621 C3.55172414,13.7672414 3.48706897,13.3793103 3.42241379,12.6034483 C3.35775862,11.8275862 3.35775862,11.5689655 3.35775862,9.56465517 C3.35775862,7.56034483 3.35775862,7.30172414 3.42241379,6.52586207 C3.48706897,5.75 3.61637931,5.29741379 3.68103448,5.0387931 C3.81034483,4.71551724 4.00431034,4.39224138 4.26293103,4.19827586 C4.52155172,3.93965517 4.78017241,3.74568966 5.10344828,3.61637931 C5.36206897,3.48706897 5.75,3.42241379 6.52586207,3.35775862 C7.30172414,3.35775862 7.56034483,3.35775862 9.56465517,3.35775862 L9.56465517,3.35775862 Z M9.56465517,2 C7.49568966,2 7.23706897,2 6.4612069,2.06465517 C5.68534483,2.12931034 5.10344828,2.19396552 4.65086207,2.38793103 C4.13362069,2.58189655 3.68103448,2.84051724 3.29310345,3.22844828 C2.90517241,3.61637931 2.64655172,4.06896552 2.45258621,4.5862069 C2.25862069,5.0387931 2.12931034,5.62068966 2.06465517,6.39655172 C2,7.17241379 2,7.43103448 2,9.5 C2,11.5689655 2,11.8275862 2.06465517,12.6034483 C2.12931034,13.3793103 2.25862069,13.9612069 2.38793103,14.4137931 C2.58189655,14.9310345 2.84051724,15.3836207 3.22844828,15.7715517 C3.61637931,16.1594828 4.06896552,16.4181034 4.5862069,16.612069 C5.0387931,16.8060345 5.62068966,16.9353448 6.39655172,16.9353448 C7.17241379,17 7.43103448,17 9.5,17 C11.5689655,17 11.8275862,17 12.6034483,16.9353448 C13.3793103,16.8706897 13.9612069,16.7413793 14.4137931,16.612069 C15.4482759,16.2241379 16.2241379,15.4482759 16.612069,14.4137931 C16.8060345,13.9612069 16.9353448,13.3793103 16.9353448,12.6034483 C17,11.8275862 17,11.5689655 17,9.5 C17,7.43103448 17,7.17241379 16.9353448,6.39655172 C16.8706897,5.62068966 16.7413793,5.0387931 16.612069,4.5862069 C16.4181034,4.06896552 16.1594828,3.61637931 15.7715517,3.22844828 C15.3836207,2.84051724 14.9310345,2.58189655 14.4137931,2.38793103 C13.9612069,2.19396552 13.3793103,2.06465517 12.6034483,2.06465517 C11.8275862,2 11.5689655,2 9.56465517,2 L9.56465517,2 Z" id="Shape" fill="#ffffff" fill-rule="nonzero"></path>
                        <path d="M9.50056152,5.74915771 C7.37344915,5.74915771 5.63308449,7.48952238 5.63308449,9.61663475 C5.63308449,11.7437471 7.37344915,13.4841118 9.50056152,13.4841118 C11.6276739,13.4841118 13.3680386,11.7437471 13.3680386,9.61663475 L13.3680386,9.61663475 C13.3035806,7.48952238 11.6276739,5.74915771 9.50056152,5.74915771 C9.50056152,5.74915771 9.50056152,5.74915771 9.50056152,5.74915771 Z M9.50056152,12.1304948 C8.14694456,12.1304948 6.98670145,11.0347097 6.98670145,9.61663475 C6.98670145,8.19855984 8.08248661,7.10277468 9.50056152,7.10277468 C10.9186364,7.10277468 12.0144216,8.19855984 12.0144216,9.61663475 C12.0144216,11.0347097 10.8541785,12.1304948 9.50056152,12.1304948 L9.50056152,12.1304948 Z" id="Shape" fill="#ffffff" fill-rule="nonzero"></path>
                        <circle id="Oval" fill="#ffffff" cx="13.4852348" cy="5.51476517" r="1"></circle>
                    </g>
                </g>
            </g>
        </g>
    </g>
</svg>