<?xml version="1.0" encoding="UTF-8"?>
<svg width="17px" height="13px" viewBox="0 0 17 13" version="1.1" xmlns="http://www.w3.org/2000/svg" xmlns:xlink="http://www.w3.org/1999/xlink">
    <!-- Generator: sketchtool 53 (72520) - https://sketchapp.com -->
    <title>217E9345-D3AB-4841-A636-7C2FC6AF5E26</title>
    <desc>Created with sketchtool.</desc>
    <g id="Desktop" stroke="none" stroke-width="1" fill="none" fill-rule="evenodd">
        <g id="Search" transform="translate(-1253.000000, -66.000000)">
            <g id="Header/general" transform="translate(0.000000, 40.000000)">
                <g id="header-desktop">
                    <g id="ic_twitter" transform="translate(1252.000000, 23.000000)">
                        <rect id="Rectangle" fill-rule="nonzero" x="0" y="0" width="19" height="19"></rect>
                        <path d="M17.87735,4.5328058 C17.2563716,4.79279009 16.5890321,4.9685024 15.8886023,5.04752922 C16.6035386,4.64295382 17.152536,4.00234694 17.4110762,3.23906199 C16.7420695,3.61362352 16.0010195,3.88567164 15.2123103,4.03230254 C14.5806526,3.39699909 13.6807611,3 12.6848754,3 C10.7725534,3 9.2221758,4.46356991 9.2221758,6.26877349 C9.2221758,6.52496962 9.25285691,6.77446362 9.31187408,7.01370044 C6.43410104,6.87738499 3.88271239,5.57600658 2.17491396,3.59835432 C1.87686412,4.08114065 1.70610893,4.64266241 1.70610893,5.2417161 C1.70610893,6.37577442 2.31745685,7.3763147 3.24654759,7.96248864 C2.67890716,7.94552934 2.14503493,7.79849048 1.67814361,7.55365884 C1.67789674,7.56729622 1.67789674,7.58099187 1.67789674,7.59474579 C1.67789674,9.17854604 2.87145425,10.4997394 4.45547682,10.7999948 C4.16489668,10.874709 3.85900667,10.9146303 3.54317757,10.9146303 C3.32007237,10.9146303 3.10314041,10.8941743 2.89176464,10.8560013 C3.33235737,12.1546988 4.61110726,13.0997571 6.12629675,13.1261577 C4.94125856,14.0028543 3.44823133,14.5254455 1.82599563,14.5254455 C1.54652759,14.5254455 1.27088707,14.5100014 1,14.4798127 C2.53235153,15.4072706 4.35244345,15.9483946 6.30785523,15.9483946 C12.6767876,15.9483946 16.1595513,10.9674314 16.1595513,6.64782254 C16.1595513,6.50608711 16.1562178,6.3651093 16.1495499,6.22494741 C16.826027,5.76407412 17.4131135,5.18833219 17.87735,4.5328058" id="Fill-1-Copy" fill="#256EC1"></path>
                    </g>
                </g>
            </g>
        </g>
    </g>
</svg>