<?xml version="1.0" encoding="UTF-8"?>
<svg width="18px" height="13px" viewBox="0 0 18 13" version="1.1" xmlns="http://www.w3.org/2000/svg" xmlns:xlink="http://www.w3.org/1999/xlink">
    <!-- Generator: sketchtool 53 (72520) - https://sketchapp.com -->
    <title>77067EF0-E15F-4F8B-AB94-ACAF470658A2</title>
    <desc>Created with sketchtool.</desc>
    <g id="Desktop" stroke="none" stroke-width="1" fill="none" fill-rule="evenodd">
        <g id="Search" transform="translate(-1315.000000, -66.000000)" fill-rule="nonzero">
            <g id="Header/general" transform="translate(0.000000, 40.000000)">
                <g id="header-desktop">
                    <g id="ic_youtube" transform="translate(1314.000000, 23.000000)">
                        <rect id="Rectangle" x="0" y="0" width="19" height="19"></rect>
                        <path d="M17.8457744,6.00461502 C17.8457744,6.00461502 17.6795069,4.80168844 17.1693435,4.27195915 C16.5222978,3.57668198 15.7970244,3.57324695 15.4644227,3.5325393 C13.0833209,3.35596856 9.51154323,3.35596856 9.51154323,3.35596856 L9.5041469,3.35596856 C9.5041469,3.35596856 5.93245252,3.35596856 3.55126739,3.5325393 C3.21864911,3.57324695 2.49362552,3.57668198 1.84634671,4.27195915 C1.33618319,4.80168844 1.17016556,6.00461502 1.17016556,6.00461502 C1.17016556,6.00461502 1,7.41723217 1,8.8298664 L1,10.1541982 C1,11.5667982 1.17016556,12.9794153 1.17016556,12.9794153 C1.17016556,12.9794153 1.33618319,14.182359 1.84634671,14.7120884 C2.49362552,15.4073484 3.34388696,15.385371 3.72256572,15.4582415 C5.08385692,15.5921564 9.50786172,15.6335989 9.50786172,15.6335989 C9.50786172,15.6335989 13.0833209,15.6280618 15.4644227,15.4514911 C15.7970244,15.4108006 16.5222978,15.4073484 17.1693435,14.7120884 C17.6795069,14.182359 17.8457744,12.9794153 17.8457744,12.9794153 C17.8457744,12.9794153 18.0157067,11.5667982 18.0157067,10.1541982 L18.0157067,8.8298664 C18.0157067,7.41723217 17.8457744,6.00461502 17.8457744,6.00461502 L17.8457744,6.00461502 Z M7.75118339,11.7590402 L7.75040045,6.8542976 L12.3481191,9.31521375 L7.75118339,11.7590402 L7.75118339,11.7590402 Z" id="Fill-2" fill="#fff"></path>
                    </g>
                </g>
            </g>
        </g>
    </g>
</svg>
