<?xml version="1.0" encoding="UTF-8"?>
<svg width="170px" height="48px" viewBox="0 0 170 48" version="1.1" xmlns="http://www.w3.org/2000/svg" xmlns:xlink="http://www.w3.org/1999/xlink">
    <!-- Generator: sketchtool 52.6 (67491) - http://www.bohemiancoding.com/sketch -->
    <title>0AAD563F-4D78-42A4-928D-D9B7DBBE7D1D</title>
    <desc>Created with sketchtool.</desc>
    <g id="Desktop" stroke="none" stroke-width="1" fill="none" fill-rule="evenodd">
        <g id="Homepage" transform="translate(-635.000000, -2975.000000)" fill="#121212">
            <g id="Footer/desktop" transform="translate(0.000000, 2914.000000)">
                <g id="footer" transform="translate(491.000000, 61.000000)">
                    <path d="M164.770119,24.7208001 C164.913213,24.7208001 165.292341,24.7464905 165.292341,25.2992018 C165.292341,25.7462152 165.003938,28.7586017 164.683082,29.9014588 C164.47139,30.6743738 164.104065,30.9070557 161.937729,30.9070557 C159.687307,30.9070557 157.937717,30.8608129 156.393917,30.8197082 L156.379902,30.8197082 C155.935129,30.807964 155.511008,30.7969538 155.103852,30.7874117 C153.113803,30.7015323 151.682119,30.6662997 150.161185,30.6662997 C149.726738,30.6662997 148.823176,30.6662997 147.85618,30.7081384 C147.376739,30.7081384 146.866319,30.7294247 146.372864,30.749243 L146.3618,30.7499771 C145.919239,30.7683274 145.461188,30.7874117 145.064359,30.7874117 C144.36585,30.7874117 144.36585,30.566474 144.36585,30.4945408 C144.36585,30.4299477 144.36585,30.030645 144.899874,30.030645 C145.554126,30.030645 146.058646,29.9374255 146.38024,29.8676943 C147.274213,29.6893293 147.481479,28.716763 147.643751,27.5584916 C147.839215,25.8651252 147.839215,22.9195339 147.839215,19.2208459 L147.839215,12.1361593 C147.839215,5.99321039 147.839215,5.19533902 147.764718,3.90200936 C147.684319,2.5550968 147.37969,1.81447839 145.940629,1.50766125 C145.621986,1.42838793 145.138119,1.3850812 144.57828,1.3850812 C144.044994,1.3850812 144,0.944673823 144,0.82209377 C144,0.692173594 144.060483,0.565923479 144.78112,0.565923479 C145.861706,0.565923479 147.137756,0.604092119 148.264074,0.637856684 C149.078386,0.66207909 149.846967,0.685567483 150.32567,0.685567483 C150.74684,0.685567483 151.527223,0.662813102 152.431522,0.637856684 L152.472828,0.63638866 C153.628649,0.603358106 154.937892,0.565923479 155.827439,0.565923479 C156.513408,0.565923479 156.570204,0.698045692 156.570204,0.82209377 C156.570204,0.949811909 156.522997,1.3850812 155.949881,1.3850812 C155.521334,1.3850812 154.861181,1.42251583 154.351498,1.50545922 C153.124867,1.73006698 152.841628,2.55436279 152.766393,3.90200936 C152.683782,5.19533902 152.683782,5.99247637 152.683782,12.1361593 L152.683782,19.2208459 C152.683782,24.535095 152.683782,27.2024956 153.569641,27.9592623 C154.245284,28.5508762 155.23662,28.8709056 158.535174,28.8709056 C160.539237,28.8709056 162.26965,28.8709056 163.352449,27.7074961 C163.841479,27.1826773 164.345998,26.0251399 164.43156,25.2309386 C164.478766,24.8000734 164.582768,24.7208001 164.770119,24.7208001 Z M180.298104,30.0556014 C180.711161,30.0556014 180.840241,30.3000275 180.840241,30.4945408 C180.840241,30.7587852 180.377765,30.7874117 180.178613,30.7874117 C178.553677,30.7874117 176.991437,30.7426369 175.733089,30.7074043 C174.929841,30.683916 174.295504,30.6662997 173.868432,30.6662997 C173.462014,30.6662997 172.734739,30.6897881 171.965421,30.7147445 L171.938867,30.7154785 C170.881147,30.749243 169.683282,30.7874117 168.770131,30.7874117 C168.067935,30.7874117 168.067935,30.566474 168.067935,30.4945408 C168.067935,30.4358198 168.067935,30.0556014 168.608597,30.0556014 C169.102052,30.0556014 169.585181,30.0027525 170.084537,29.8933847 C170.971134,29.7172218 171.224131,28.957519 171.345098,27.7882375 C171.549413,26.091201 171.549413,23.1845123 171.549413,19.2208459 L171.549413,12.1361593 C171.549413,5.99247637 171.549413,5.07936508 171.469015,3.78603542 C171.382716,2.34737132 170.946793,1.64345353 170.011514,1.43352601 C169.612472,1.32415818 169.113854,1.26910726 168.529673,1.26910726 C168.030317,1.26910726 167.989011,0.935131663 167.989011,0.778787045 C167.989011,0.635654647 168.270775,0.565923479 168.85053,0.565923479 C169.67148,0.565923479 170.759442,0.599688045 171.814212,0.631984586 L171.831915,0.631984586 C172.723675,0.659143041 173.566753,0.685567483 174.110366,0.685567483 C174.572842,0.685567483 175.350274,0.659143041 176.102627,0.634920635 C177.085112,0.602624094 178.198153,0.565923479 179.047132,0.565923479 C179.539112,0.565923479 179.788421,0.637122672 179.788421,0.778787045 C179.788421,0.935131663 179.747116,1.26910726 179.249235,1.26910726 C178.825852,1.26910726 178.489505,1.31167997 178.016703,1.38948527 C176.79376,1.61335902 176.509783,2.43765483 176.431597,3.78603542 C176.348986,5.07936508 176.348986,5.99247637 176.348986,12.1361593 L176.348986,19.2208459 C176.348986,23.1837783 176.348986,26.090467 176.513471,27.8278741 C176.641814,28.9802734 176.972259,29.7282319 178.223231,29.8948527 C178.797823,29.9748601 179.694746,30.0556014 180.298104,30.0556014 Z M199.126118,13.6445545 C204.500282,15.4766492 206.414358,19.286173 206.414358,22.2405725 C206.414358,24.5072025 205.50047,26.6116157 203.840129,28.1640517 C201.921628,29.9587118 199.114317,30.9070557 195.722088,30.9070557 C195.455076,30.9070557 194.954244,30.8820993 194.423171,30.8556748 L194.383341,30.8534728 C193.926028,30.8314524 193.407494,30.805762 192.893386,30.7874117 C191.613648,30.7044683 190.420946,30.6662997 189.854468,30.6662997 C189.419283,30.6662997 188.513509,30.6662997 187.547989,30.7081384 C187.06781,30.7081384 186.55739,30.7294247 186.063934,30.749243 L186.052133,30.7499771 C185.609572,30.7683274 185.151521,30.7874117 184.753954,30.7874117 C184.056183,30.7874117 184.056183,30.566474 184.056183,30.4945408 C184.056183,30.4299477 184.056183,30.0078906 184.59242,30.0078906 C185.246672,30.0078906 185.751191,29.9146711 186.072786,29.8449399 C186.962333,29.6680429 187.168861,28.6954766 187.331134,27.5372052 C187.537662,25.8431049 187.537662,22.9195339 187.537662,19.2208459 L187.537662,12.1361593 C187.537662,5.99247637 187.537662,5.17552069 187.4521,3.88292504 C187.376865,2.53601248 187.075186,1.79539407 185.632438,1.48710891 C185.287978,1.40343151 184.578405,1.36526287 184.027417,1.36526287 C183.492656,1.36526287 183.447662,0.944673823 183.447662,0.82209377 C183.447662,0.692173594 183.508145,0.565923479 184.23247,0.565923479 C185.554252,0.565923479 187.060434,0.612166254 188.166836,0.646664832 L188.1779,0.646664832 C188.874196,0.6686852 189.423709,0.685567483 189.731289,0.685567483 C190.824414,0.685567483 191.796573,0.648866869 192.658829,0.61730434 C193.373565,0.590879897 194.047732,0.565923479 194.670268,0.565923479 C202.561866,0.565923479 203.174812,5.1043215 203.174812,6.4952748 C203.174812,9.57372236 201.543238,11.5049087 199.093664,13.4581154 L198.939505,13.5814295 L199.126118,13.6445545 Z M192.173487,2.87439215 C192.173487,2.44279292 192.244297,2.18882466 192.616786,2.08532893 C193.039431,2.0001835 193.413395,2.0001835 193.979135,2.0001835 C196.014178,2.0001835 197.237121,3.17240114 197.905388,4.15597761 C198.685033,5.30323883 199.149721,6.87108909 199.149721,8.35012386 C199.149721,10.2996605 198.561853,11.8043857 197.448813,12.7013487 C196.704573,13.3568217 195.717662,13.491146 194.465215,13.491146 C193.546901,13.491146 192.917727,13.4507753 192.540813,13.3678319 C192.369689,13.3267272 192.173487,13.2276356 192.173487,12.8209928 L192.173487,2.87439215 Z M199.84823,28.2836958 C198.639301,29.2107533 197.209092,29.311313 196.650728,29.311313 C195.707336,29.311313 194.768369,29.2738783 193.656804,28.8246628 C192.310681,28.2785577 192.173487,27.5856501 192.173487,24.8573264 L192.173487,15.3144325 C192.173487,14.9922011 192.363788,14.924672 192.52311,14.924672 C193.136795,14.924672 193.541738,14.924672 194.272701,14.9672447 C195.846005,15.046518 196.803411,15.3225067 197.68632,15.9522892 C201.267375,18.4413249 201.654616,22.447564 201.654616,24.0543169 C201.654616,25.9414625 201.046832,27.3647124 199.84823,28.2836958 Z M227.545164,24.8859528 C227.733252,24.8859528 227.762019,25.0246812 227.762019,25.5032572 C227.762019,26.4112304 227.437474,29.1498303 227.236109,29.9418295 C226.973523,30.9070557 226.696185,30.9070557 225.158286,30.9070557 C222.693959,30.9070557 220.765131,30.8556748 219.213956,30.8145701 C218.844417,30.804294 218.494794,30.7954858 218.164349,30.7874117 C216.557853,30.7147445 215.22722,30.6662997 213.951907,30.6662997 C213.516722,30.6662997 212.610948,30.6662997 211.64469,30.7081384 C211.156398,30.7081384 210.643765,30.7301587 210.146621,30.7499771 C209.681195,30.7697954 209.241584,30.7874117 208.852131,30.7874117 C208.151409,30.7874117 208.151409,30.566474 208.151409,30.4945408 C208.151409,30.4358198 208.151409,29.9814662 208.690596,29.9814662 C209.34116,29.9814662 209.847155,29.8889806 210.170962,29.8185155 C211.062722,29.6408845 211.267038,28.6683182 211.427097,27.5107808 C211.63215,25.8166804 211.63215,22.9195339 211.63215,19.22158 L211.63215,12.1361593 C211.63215,5.99247637 211.435948,5.08156712 211.351124,3.78897147 C211.275889,2.4420589 210.973472,1.7014405 209.533674,1.39315534 C209.189215,1.30947793 208.478167,1.27130929 207.925703,1.27130929 C207.390205,1.27130929 207.542888,0.944673823 207.542888,0.82209377 C207.542888,0.692907606 207.603371,0.565923479 208.327696,0.565923479 C208.887536,0.565923479 209.466553,0.576933664 210.02713,0.587209836 C210.580331,0.597486008 211.101815,0.607028168 211.596746,0.607028168 L211.598958,0.607028168 L211.838679,0.615836315 C212.797561,0.653270942 213.62515,0.685567483 214.151797,0.685567483 C216.963534,0.685567483 223.579081,0.681897422 224.276114,0.646664832 C225.147222,0.554179283 225.73804,0.472703918 226.032343,0.40297275 C226.114955,0.386090467 226.20568,0.355995963 226.286078,0.328837508 C226.414421,0.286264795 226.547927,0.241490045 226.657092,0.241490045 C226.7161,0.241490045 226.789122,0.241490045 226.789122,0.498394348 C226.789122,0.580603725 226.766994,0.696577668 226.736015,0.856592348 C226.66668,1.22873658 226.548664,1.85044499 226.466053,3.10193596 C226.450563,3.25314249 226.430648,3.58271401 226.407045,3.9644004 C226.366477,4.62794752 226.31632,5.45224333 226.2669,5.75245435 C226.21158,6.01082668 226.129707,6.10698229 225.967434,6.10698229 C225.828765,6.10698229 225.513809,6.07248371 225.513809,5.64969263 C225.513809,5.32232315 225.460702,4.64115974 225.263025,4.16405175 C224.984212,3.45939994 224.601396,2.90081659 222.461615,2.64684833 C221.757943,2.56463896 217.687121,2.48609964 216.90305,2.48609964 C216.512859,2.48609964 216.512859,2.86852005 216.512859,2.99403615 L216.512859,13.1791908 C216.512859,13.3854482 216.512859,13.731168 216.90305,13.731168 C218.976448,13.731168 222.575943,13.7208918 223.385829,13.6504266 C224.396343,13.5674833 225.015928,13.4412331 225.400956,13.0103679 L225.475454,12.9259565 C225.697472,12.6756583 225.831716,12.5244518 225.967434,12.5244518 C226.052258,12.5244518 226.142983,12.5406001 226.142983,12.7365813 C226.142983,12.8107166 226.125281,12.9354987 226.094302,13.1439582 C226.035294,13.550601 225.926129,14.3073676 225.817701,15.6733645 C225.799999,16.0249564 225.766807,16.5270208 225.73509,17.012937 L225.732139,17.0591797 C225.692309,17.6551977 225.656166,18.2181852 225.656166,18.3752638 C225.656166,18.8009909 225.614861,19.0322048 225.400956,19.0322048 C225.213606,19.0322048 225.143533,18.9617396 225.143533,18.7701624 C225.133207,18.6622626 225.125831,18.5462887 225.118455,18.4237086 C225.096327,18.0823929 225.071986,17.6955684 224.979786,17.3021378 C224.734165,16.3236994 223.984762,15.7988806 222.620199,15.6506101 C221.825065,15.5684008 217.769732,15.5294981 216.861745,15.5294981 C216.512859,15.5294981 216.512859,15.8869621 216.512859,16.0396367 L216.512859,19.22158 C216.512859,19.6142765 216.509909,20.2000184 216.505483,20.8635655 L216.505483,20.8870539 C216.495894,22.5569318 216.484093,24.6356546 216.512859,25.4680246 C216.596208,28.3996697 217.385442,28.953849 221.478392,28.953849 C222.516197,28.953849 223.947882,28.953849 225.018879,28.4576567 C226.083238,27.9710065 226.61136,27.1136802 226.901975,25.4012295 C226.988275,24.9307276 227.368877,24.8859528 227.545164,24.8859528 Z M261.322146,30.0078906 C261.575143,30.0078906 261.702748,30.3514084 261.702748,30.4945408 C261.702748,30.6435453 261.651854,30.7881457 261.04112,30.7881457 L257.197479,30.7881457 C255.02303,30.7881457 253.983012,30.6053766 252.919391,30.0343151 C251.246511,29.1446922 249.752868,27.3544362 247.412458,24.1497385 C246.721326,23.2035967 245.980774,22.1554271 245.325784,21.2283696 L245.316195,21.2144233 C244.451726,19.9908248 243.705274,18.9338471 243.402857,18.5844573 C243.177151,18.3209469 242.915302,18.267364 242.591495,18.267364 L239.073137,18.1880907 C238.78916,18.1880907 238.639427,18.3356271 238.639427,18.6152858 L238.639427,19.1804753 C238.639427,22.9011836 238.639427,25.8665933 238.842267,27.5584916 C238.959546,28.6756583 239.174926,29.6929994 240.51441,29.8698963 C241.113342,29.9477016 242.015429,30.031379 242.508884,30.031379 C242.884323,30.031379 242.886536,30.3073676 242.886536,30.4945408 C242.886536,30.567208 242.886536,30.7881457 242.184339,30.7881457 C240.633901,30.7881457 238.782522,30.7345628 237.556628,30.6985962 C236.93778,30.6809799 236.448751,30.6662997 236.237059,30.6662997 C235.918415,30.6662997 235.273752,30.687586 234.587045,30.7103404 C233.549977,30.744105 232.26065,30.7874117 231.303981,30.7874117 C230.603259,30.7874117 230.603259,30.566474 230.603259,30.4945408 C230.603259,30.4299477 230.603259,29.9822002 231.142446,29.9822002 C231.794486,29.9822002 232.29753,29.8889806 232.619862,29.8192495 C233.514572,29.6408845 233.718888,28.6683182 233.87821,27.5107808 C234.081788,25.8174144 234.081788,22.9195339 234.081788,19.22158 L234.081788,12.1361593 C234.081788,5.99247637 234.081788,5.05367465 233.999176,3.76034499 C233.921728,2.41269841 233.618574,1.67208001 232.178038,1.36526287 C231.832841,1.28085145 231.124006,1.24341683 230.573755,1.24341683 C230.038994,1.24341683 229.994001,0.944673823 229.994001,0.82209377 C229.994001,0.692173594 230.054484,0.565923479 230.775858,0.565923479 C232.102803,0.565923479 233.539651,0.609964217 234.693997,0.645930819 C235.387342,0.667217176 235.986275,0.685567483 236.31967,0.685567483 C237.019654,0.685567483 238.167362,0.654004955 239.277452,0.623910451 L239.338673,0.622442426 C240.40967,0.593815946 241.420922,0.565923479 242.023542,0.565923479 C244.434761,0.565923479 247.197816,0.769244885 249.411358,2.27837416 C250.345899,2.91035875 252.111717,4.85695935 252.111717,7.70639508 C252.111717,10.9654097 250.528087,13.6379484 246.814264,16.6415267 L246.730915,16.7090559 L246.797299,16.7927333 C247.177163,17.2683732 247.547439,17.733003 247.908864,18.1880907 L248.170713,18.5169282 C251.149147,22.2596568 253.502833,24.9446738 255.581394,27.1202863 C257.815589,29.4192128 259.492157,29.7517203 260.122806,29.8772364 L260.172963,29.8867786 C260.63839,29.969722 261.00424,30.0078906 261.322146,30.0078906 Z M245.122206,15.8458574 C244.383867,16.3758143 243.855744,16.5527113 242.184339,16.5527113 C241.016716,16.5527113 239.856469,16.3993027 239.079037,16.1423984 C238.741953,16 238.639427,15.8069548 238.639427,15.3144325 L238.639427,3.07330948 C238.639427,2.79511882 238.693272,2.52133223 239.082725,2.40682631 C239.458902,2.29305441 240.108729,2.24387558 241.255699,2.24387558 C243.596109,2.24387558 247.557028,3.81833196 247.557028,9.71685476 C247.557028,13.5072942 246.030931,15.1837783 245.122206,15.8458574 Z M312.685759,0.565923479 C313.097341,0.565923479 313.306082,0.637122672 313.306082,0.778787045 C313.306082,1.04670153 312.845081,1.07606202 312.646667,1.07606202 C312.209269,1.07606202 311.419298,1.24855491 310.81889,1.56711625 C309.947045,1.98330122 309.494896,2.4714194 308.596497,3.56950179 C307.237835,5.20781723 301.556829,14.7235526 300.849469,16.4029727 C300.23431,17.8695293 300.23431,19.1334985 300.23431,20.4708689 L300.23431,23.7724562 C300.23431,24.4125149 300.23431,25.8196165 300.360439,27.5107808 C300.426086,28.4892192 300.683509,29.6372144 302.10708,29.8258556 C302.683884,29.9058629 303.570481,29.9873383 304.148023,29.9873383 C304.606811,29.9873383 304.683521,30.3073676 304.683521,30.4945408 C304.683521,30.7374989 304.280791,30.7881457 303.94297,30.7881457 C302.395482,30.7881457 300.872335,30.744105 299.648654,30.7081384 L299.602923,30.7074043 C298.839505,30.685384 298.180827,30.6662997 297.755969,30.6662997 C297.290542,30.6662997 296.471067,30.6927241 295.678883,30.7184145 L295.662656,30.7191485 C294.654355,30.7514451 293.51181,30.7881457 292.697498,30.7881457 C291.975386,30.7881457 291.914903,30.6435453 291.914903,30.4945408 C291.914903,30.3000275 291.999727,29.9873383 292.456303,29.9873383 C292.921729,29.9873383 293.391581,29.9337554 293.892413,29.8243876 C294.67132,29.668777 295.135271,28.8687036 295.233372,27.5107808 C295.353601,25.8196165 295.353601,24.4117809 295.353601,23.7724562 L295.353601,20.4708689 C295.353601,18.2805762 294.939807,17.3630608 294.41611,16.2011194 C294.107792,15.4949995 288.642166,6.59143041 287.284241,4.58317277 C286.624826,3.61280851 285.916728,2.78631067 285.237397,2.19322874 C284.873022,1.91283604 284.18189,1.44233416 283.644178,1.44233416 C283.329222,1.44233416 282.947882,1.60381686 282.922066,2.37232774 C282.912478,2.71364345 282.833554,5.19827507 282.833554,5.68198917 C282.781922,6.1847876 282.677183,6.2266263 282.575394,6.2266263 C282.371816,6.2266263 282.083414,6.16276723 282.040633,5.51977246 L281.998589,5.08156712 C281.935893,4.24038903 281.21747,2.81567116 277.120831,2.72612166 L272.113255,2.60354161 L272.113255,19.2208459 C272.113255,22.9195339 272.113255,25.7770438 272.313145,27.5107808 C272.425998,28.5618864 272.648016,29.6034499 273.983075,29.7810808 C274.559141,29.8610882 275.46049,29.9425635 276.066061,29.9425635 C276.600085,29.9425635 276.60451,30.3000275 276.60451,30.4945408 C276.60451,30.7595192 276.143509,30.7881457 275.945094,30.7881457 C274.325322,30.7881457 272.766032,30.744105 271.51211,30.7081384 L271.489244,30.7081384 C270.67567,30.68465 270.033957,30.6662997 269.591396,30.6662997 C269.186453,30.6662997 268.490894,30.689054 267.685434,30.7147445 L267.663306,30.7162125 C266.60411,30.7499771 265.402557,30.7881457 264.490882,30.7881457 C263.793849,30.7881457 263.793849,30.566474 263.793849,30.4945408 C263.793849,30.4299477 263.793849,29.9425635 264.327872,29.9425635 C264.982124,29.9425635 265.485906,29.849344 265.806763,29.7796128 C266.73024,29.5961097 266.958896,28.5611524 267.068061,27.4711441 C267.271639,25.7777778 267.271639,22.9195339 267.271639,19.2208459 L267.271639,2.6028076 L261.487369,2.76649234 C259.194904,2.84356363 258.131282,3.02926874 257.475555,3.98128269 C257.000539,4.69327461 256.832366,5.19093495 256.774833,5.42435086 C256.684108,5.79649509 256.198029,5.82732361 256.07485,5.82732361 C255.93028,5.82732361 255.819639,5.78768694 255.819639,5.28855858 C255.819639,4.67198826 256.571993,1.07532801 256.666406,0.682631434 C256.779259,0.191577209 256.885474,1.42108547e-14 257.044795,1.42108547e-14 C257.145847,1.42108547e-14 257.275665,0.0565189467 257.440887,0.129186164 C257.733715,0.256904303 258.135708,0.433067254 258.772996,0.481512065 C259.959796,0.607028168 261.515398,0.685567483 262.833491,0.685567483 L278.854932,0.685567483 C279.137433,0.685567483 279.385268,0.678961373 279.614662,0.67162125 C279.638265,0.67162125 279.660393,0.670153225 279.683259,0.669419213 L279.693585,0.6686852 C279.709075,0.667951188 279.723827,0.667217176 279.740054,0.667217176 L279.765132,0.667217176 L279.782835,0.662813102 C281.862133,0.656941004 289.427711,0.639324709 289.459428,0.637856684 L289.460903,0.637856684 C290.269314,0.604826131 291.256963,0.565923479 292.295505,0.565923479 C292.790436,0.565923479 292.790436,0.75162859 292.790436,0.82209377 C292.790436,0.939535737 292.642916,0.987246536 292.18634,1.10542252 L291.987188,1.15753739 C291.600685,1.24268281 291.33146,1.58473254 291.33146,1.98843931 C291.33146,2.28424626 291.480456,2.70777136 291.830079,3.40434902 C292.282229,4.36296908 295.815339,10.4508671 297.713188,13.7208918 L297.882836,14.0137627 C298.292943,14.7198826 298.591671,15.2358932 298.712638,15.4480228 L298.821803,15.6396 L298.907365,15.4362786 C299.10873,14.9555005 300.521974,12.4341683 301.88875,9.99577943 C303.265114,7.53830627 304.689422,4.9971557 304.974136,4.36884118 C305.356952,3.52913111 305.551678,2.80906505 305.551678,2.22846133 C305.551678,1.64345353 305.229347,1.25883109 304.617875,1.11716671 C304.33021,1.05404166 303.972474,0.97550234 303.972474,0.82209377 C303.972474,0.67162125 304.014517,0.565923479 304.551491,0.565923479 C305.244099,0.565923479 305.919741,0.597486008 306.573994,0.628314524 C307.195792,0.657675016 307.784398,0.685567483 308.358989,0.685567483 C308.828104,0.685567483 309.766333,0.653270942 310.673583,0.622442426 L310.721527,0.620240389 C311.545428,0.592347922 312.325072,0.565923479 312.685759,0.565923479 Z M148.135731,43.2780989 C148.135731,45.2914946 148.539937,46.1385448 149.223693,46.6941921 C149.85213,47.2080007 150.493843,47.2637857 150.968858,47.2637857 C151.582543,47.2637857 152.336371,47.0692724 152.893998,46.5136251 C153.661841,45.7495183 153.703884,44.5002294 153.703884,43.0696394 L153.703884,41.3337003 C153.703884,39.222681 153.703884,38.8336545 153.675856,38.389577 C153.647827,37.9176071 153.536449,37.6952014 153.075448,37.5975778 C152.96407,37.5704193 152.726563,37.5564731 152.573141,37.5564731 C152.41972,37.5564731 152.336371,37.5285806 152.336371,37.430957 C152.336371,37.3340673 152.433735,37.3061749 152.629199,37.3061749 C153.340985,37.3061749 154.220205,37.3480136 154.23422,37.3480136 C154.401655,37.3480136 155.280876,37.3061749 155.825226,37.3061749 C156.019953,37.3061749 156.118054,37.3340673 156.118054,37.430957 C156.118054,37.5285806 156.033967,37.5564731 155.866532,37.5564731 C155.713111,37.5564731 155.629762,37.5704193 155.462326,37.5975778 C155.085412,37.6673089 154.973296,37.9036609 154.945268,38.389577 C154.917976,38.8336545 154.917976,39.222681 154.917976,41.3337003 L154.917976,42.8193412 C154.917976,44.360767 154.763818,45.9998165 153.591769,46.9995412 C152.60117,47.8473254 151.596557,48 150.689307,48 C149.949493,48 148.610009,47.9581613 147.591381,47.0413799 C146.879596,46.4027892 146.349261,45.374438 146.349261,43.3610423 L146.349261,41.3337003 C146.349261,39.222681 146.349261,38.8336545 146.321232,38.389577 C146.293203,37.9176071 146.181825,37.6952014 145.721562,37.5975778 C145.609446,37.5704193 145.372676,37.5564731 145.177212,37.5564731 C145.023791,37.5564731 144.939704,37.5285806 144.939704,37.430957 C144.939704,37.3340673 145.037805,37.3061749 145.246546,37.3061749 C145.986361,37.3061749 146.865582,37.3480136 147.283802,37.3480136 C147.61941,37.3480136 148.498631,37.3061749 149.000938,37.3061749 C149.210417,37.3061749 149.30778,37.3340673 149.30778,37.430957 C149.30778,37.5285806 149.223693,37.5564731 149.084287,37.5564731 C148.930866,37.5564731 148.847517,37.5704193 148.680081,37.5975778 C148.303167,37.6673089 148.191051,37.9036609 148.163022,38.389577 C148.135731,38.8336545 148.135731,39.222681 148.135731,41.3337003 L148.135731,43.2780989 Z M165.362413,37.5425268 C165.362413,37.2643362 165.404456,37.0705569 165.543863,37.0705569 C165.698021,37.0705569 165.823414,37.2503899 166.060921,37.5006881 C166.228357,37.6812552 168.348961,39.9449491 170.386954,41.9583448 C171.335509,42.9030186 173.289415,44.9721993 173.526923,45.193871 L173.387516,38.8894394 C173.373502,38.0423892 173.247372,37.7781448 172.912501,37.6394165 C172.703022,37.5564731 172.368151,37.5564731 172.172687,37.5564731 C172.005251,37.5564731 171.949931,37.5146344 171.949931,37.430957 C171.949931,37.3201211 172.103352,37.3061749 172.312831,37.3061749 C173.037893,37.3061749 173.708373,37.3480136 174.001201,37.3480136 C174.154622,37.3480136 174.684957,37.3061749 175.368714,37.3061749 C175.550164,37.3061749 175.68957,37.3201211 175.68957,37.430957 C175.68957,37.5146344 175.606221,37.5564731 175.438786,37.5564731 C175.299379,37.5564731 175.187264,37.5564731 175.019828,37.5975778 C174.629637,37.7091476 174.517522,38.0005505 174.503507,38.7786035 C174.448187,41.7087806 174.406144,44.6110652 174.350086,47.5412423 C174.350086,47.8473254 174.294028,47.9721075 174.168636,47.9721075 C174.015215,47.9721075 173.84778,47.819433 173.694358,47.6667584 C172.815138,46.8329205 171.028667,45.014038 169.577067,43.583448 C168.056133,42.0838609 166.465127,40.3060831 166.214342,40.0418387 L166.367763,45.9161391 C166.395792,46.9995412 166.577242,47.3606753 166.856056,47.4582989 C167.093563,47.5412423 167.358362,47.5551885 167.581855,47.5551885 C167.735276,47.5551885 167.819363,47.583081 167.819363,47.6667584 C167.819363,47.7775943 167.693233,47.8054867 167.497769,47.8054867 C166.591257,47.8054867 166.032892,47.763648 165.767356,47.763648 C165.641964,47.763648 164.986236,47.8054867 164.260436,47.8054867 C164.078986,47.8054867 163.952856,47.7915405 163.952856,47.6667584 C163.952856,47.583081 164.036943,47.5551885 164.17635,47.5551885 C164.3578,47.5551885 164.609322,47.5412423 164.804786,47.4861914 C165.167686,47.3746215 165.223006,46.9716488 165.23702,45.7634645 C165.279064,42.8193412 165.335121,39.3893018 165.362413,37.5425268 Z M185.408944,41.3337003 C185.408944,39.222681 185.408944,38.8336545 185.380916,38.389577 C185.352887,37.9176071 185.21348,37.6812552 184.906638,37.611524 C184.753217,37.5704193 184.571767,37.5564731 184.404331,37.5564731 C184.264925,37.5564731 184.180838,37.5285806 184.180838,37.4177447 C184.180838,37.3340673 184.292216,37.3061749 184.515709,37.3061749 C185.046044,37.3061749 185.925265,37.3480136 186.330209,37.3480136 C186.679094,37.3480136 187.502257,37.3061749 188.032593,37.3061749 C188.214043,37.3061749 188.32542,37.3340673 188.32542,37.4177447 C188.32542,37.5285806 188.242071,37.5564731 188.102665,37.5564731 C187.963258,37.5564731 187.851143,37.5704193 187.683707,37.5975778 C187.306793,37.6673089 187.195415,37.9036609 187.167386,38.389577 C187.139357,38.8336545 187.139357,39.222681 187.139357,41.3337003 L187.139357,43.7779613 C187.139357,45.1248738 187.139357,46.2222222 187.195415,46.8189742 C187.237458,47.1940545 187.334822,47.4443527 187.753779,47.4994036 C187.948506,47.5272961 188.256086,47.5551885 188.465565,47.5551885 C188.618986,47.5551885 188.68832,47.5970273 188.68832,47.6667584 C188.68832,47.763648 188.576943,47.8054867 188.423521,47.8054867 C187.502257,47.8054867 186.623036,47.763648 186.24686,47.763648 C185.925265,47.763648 185.046044,47.8054867 184.48768,47.8054867 C184.30623,47.8054867 184.208867,47.763648 184.208867,47.6667584 C184.208867,47.5970273 184.264925,47.5551885 184.43236,47.5551885 C184.641101,47.5551885 184.809274,47.5272961 184.934667,47.4994036 C185.21348,47.4443527 185.297567,47.2080007 185.33961,46.805028 C185.408944,46.2222222 185.408944,45.1248738 185.408944,43.7779613 L185.408944,41.3337003 Z M197.914239,38.6670337 C197.593382,37.9036609 197.355875,37.7509863 196.853568,37.611524 C196.644089,37.5564731 196.421334,37.5564731 196.309218,37.5564731 C196.183826,37.5564731 196.141783,37.5146344 196.141783,37.430957 C196.141783,37.3201211 196.295204,37.3061749 196.504683,37.3061749 C197.244497,37.3061749 198.040369,37.3480136 198.528661,37.3480136 C198.877547,37.3480136 199.547289,37.3061749 200.24506,37.3061749 C200.412495,37.3061749 200.565916,37.3340673 200.565916,37.430957 C200.565916,37.5285806 200.482567,37.5564731 200.356437,37.5564731 C200.133682,37.5564731 199.924203,37.5704193 199.812088,37.6533627 C199.714724,37.7230939 199.672681,37.8199835 199.672681,37.9447656 C199.672681,38.1253326 199.798073,38.5143591 199.993537,39.0142215 C200.761381,41.014405 201.695922,43.4726122 202.421721,45.3883843 C203.022129,43.8609047 204.86392,39.3203046 205.198791,38.4035233 C205.268863,38.2229562 205.324921,38.0144967 205.324921,37.8897147 C205.324921,37.7781448 205.268863,37.6673089 205.143471,37.6254702 C204.976035,37.5704193 204.766556,37.5564731 204.585106,37.5564731 C204.459714,37.5564731 204.347599,37.5425268 204.347599,37.4449032 C204.347599,37.3340673 204.473729,37.3061749 204.738527,37.3061749 C205.436298,37.3061749 206.022692,37.3480136 206.204142,37.3480136 C206.440912,37.3480136 207.097377,37.3061749 207.515597,37.3061749 C207.697047,37.3061749 207.808425,37.3340673 207.808425,37.430957 C207.808425,37.5285806 207.725076,37.5564731 207.585669,37.5564731 C207.445525,37.5564731 207.152697,37.5564731 206.901912,37.7230939 C206.720463,37.847876 206.510984,38.0842279 206.134069,38.9723828 C205.58972,40.2781907 205.213543,41.0283512 204.459714,42.7363978 C203.566479,44.7637398 202.910014,46.2772731 202.603171,46.9716488 C202.240271,47.7775943 202.156922,48 201.961458,48 C201.780008,48 201.695922,47.8054867 201.431123,47.1522158 L197.914239,38.6670337 Z M216.783559,41.3337003 C216.783559,39.222681 216.783559,38.8336545 216.75553,38.389577 C216.727501,37.9176071 216.616123,37.6952014 216.15586,37.5975778 C216.043745,37.5704193 215.806975,37.5564731 215.61151,37.5564731 C215.458089,37.5564731 215.374003,37.5285806 215.374003,37.430957 C215.374003,37.3340673 215.472104,37.3061749 215.681582,37.3061749 C216.323296,37.3061749 216.965009,37.3480136 217.690809,37.3480136 C218.137795,37.3480136 221.327921,37.3480136 221.593458,37.3340673 C221.858257,37.3061749 222.08175,37.2782824 222.193128,37.2503899 C222.2632,37.2371777 222.346549,37.195339 222.416621,37.195339 C222.486693,37.195339 222.49997,37.2503899 222.49997,37.3201211 C222.49997,37.4177447 222.430635,37.5843655 222.388592,38.2229562 C222.374578,38.3616846 222.346549,38.9723828 222.319258,39.1397376 C222.305243,39.2087347 222.277214,39.2924121 222.179113,39.2924121 C222.08175,39.2924121 222.053721,39.2087347 222.053721,39.042114 C222.053721,38.986329 222.039707,38.7646573 221.969635,38.5980365 C221.872271,38.3477383 221.732864,38.1811175 221.035094,38.0981741 C220.797586,38.0702817 218.918915,38.0423892 218.640102,38.0423892 C218.57003,38.0423892 218.542001,38.0842279 218.542001,38.1811175 L218.542001,41.6948344 C218.542001,41.791724 218.556015,41.8475089 218.640102,41.8475089 C218.946944,41.8475089 220.965021,41.8475089 221.285878,41.8196165 C221.620749,41.791724 221.830228,41.7506193 221.956358,41.611157 C222.053721,41.5003211 222.109779,41.431324 222.179113,41.431324 C222.235171,41.431324 222.277214,41.4584824 222.277214,41.5421598 C222.277214,41.6251032 222.221157,41.8475089 222.165099,42.5558308 C222.151084,42.8332875 222.109779,43.3889348 222.109779,43.4865584 C222.109779,43.5973943 222.109779,43.7500688 221.983649,43.7500688 C221.886286,43.7500688 221.858257,43.5973943 221.858257,43.5276631 C221.844242,43.3889348 221.844242,43.3059914 221.802199,43.1254244 C221.732864,42.8472337 221.5374,42.6387742 221.021079,42.5837233 C220.755543,42.5558308 218.960958,42.5418846 218.626087,42.5418846 C218.556015,42.5418846 218.542001,42.5976695 218.542001,42.6806129 L218.542001,43.7779613 C218.542001,44.2499312 218.527986,45.5278466 218.542001,45.9300853 C218.57003,46.8887054 219.20658,47.0971649 220.63015,47.0971649 C220.99305,47.0971649 221.579443,47.0971649 221.942343,46.9305441 C222.305243,46.7639233 222.472679,46.4717864 222.570042,45.9021929 C222.598071,45.7495183 222.6261,45.6944674 222.723463,45.6944674 C222.835579,45.6944674 222.835579,45.8053032 222.835579,45.9440316 C222.835579,46.2633269 222.723463,47.2080007 222.654129,47.4861914 C222.556028,47.8473254 222.430635,47.8473254 221.9003,47.8473254 C220.658179,47.8473254 219.017016,47.763648 217.621474,47.763648 C217.06311,47.763648 216.490731,47.8054867 215.862295,47.8054867 C215.681582,47.8054867 215.583481,47.763648 215.583481,47.6667584 C215.583481,47.5970273 215.639539,47.5551885 215.806975,47.5551885 C216.015716,47.5551885 216.183889,47.5272961 216.309281,47.4994036 C216.588094,47.4443527 216.658167,47.1390036 216.714224,46.7360308 C216.783559,46.1524911 216.783559,45.0551427 216.783559,43.7779613 L216.783559,41.3337003 Z M233.662092,41.3337003 C233.662092,39.222681 233.662092,38.8336545 233.634064,38.389577 C233.606035,37.9176071 233.494657,37.6952014 233.034394,37.5975778 C232.922278,37.5704193 232.685508,37.5564731 232.490044,37.5564731 C232.336623,37.5564731 232.252536,37.5285806 232.252536,37.430957 C232.252536,37.3340673 232.350637,37.3061749 232.559378,37.3061749 C233.299193,37.3061749 234.178413,37.3480136 234.471241,37.3480136 C234.945519,37.3480136 236.00619,37.3061749 236.439162,37.3061749 C237.318383,37.3061749 238.252924,37.3898523 239.006752,37.9036609 C239.397681,38.1671713 239.956045,38.8754932 239.956045,39.8062208 C239.956045,40.833838 239.537088,41.7645656 238.127531,42.9030186 C239.369652,44.4583907 240.33296,45.7084136 241.156123,46.56941 C241.937243,47.3746215 242.495607,47.4722452 242.705086,47.5133498 C242.858507,47.5412423 242.983899,47.5551885 243.096015,47.5551885 C243.207393,47.5551885 243.262713,47.5970273 243.262713,47.6667584 C243.262713,47.7775943 243.165349,47.8054867 242.997914,47.8054867 L241.630401,47.8054867 C240.849281,47.8054867 240.500395,47.7357556 240.137495,47.5412423 C239.537088,47.221947 239.006752,46.56941 238.225632,45.4999541 C237.667268,44.7358473 237.024817,43.7919075 236.843367,43.583448 C236.774033,43.4997706 236.689946,43.4865584 236.592583,43.4865584 L235.420534,43.4586659 C235.350462,43.4586659 235.308419,43.4865584 235.308419,43.5695018 L235.308419,43.764015 C235.308419,45.0551427 235.308419,46.1524911 235.378491,46.7360308 C235.420534,47.1390036 235.503883,47.4443527 235.922841,47.4994036 C236.13232,47.5272961 236.439162,47.5551885 236.606597,47.5551885 C236.717975,47.5551885 236.774033,47.5970273 236.774033,47.6667584 C236.774033,47.763648 236.675932,47.8054867 236.494482,47.8054867 C235.685333,47.8054867 234.652691,47.763648 234.443212,47.763648 C234.178413,47.763648 233.299193,47.8054867 232.740828,47.8054867 C232.559378,47.8054867 232.462015,47.763648 232.462015,47.6667584 C232.462015,47.5970273 232.518073,47.5551885 232.685508,47.5551885 C232.894249,47.5551885 233.061685,47.5272961 233.187815,47.4994036 C233.466628,47.4443527 233.5367,47.1390036 233.59202,46.7360308 C233.662092,46.1524911 233.662092,45.0551427 233.662092,43.7779613 L233.662092,41.3337003 Z M235.308419,42.4310487 L235.308419,38.20901 C235.308419,38.0981741 235.336448,38.0423892 235.434549,38.0144967 C235.573955,37.972658 235.82474,37.9587118 236.173625,37.9587118 C236.997526,37.9587118 238.308981,38.5283053 238.308981,40.5005964 C238.308981,41.6390495 237.904038,42.2783742 237.485818,42.5837233 C237.234296,42.7642903 237.052846,42.8193412 236.494482,42.8193412 C236.145596,42.8193412 235.727376,42.7782365 235.434549,42.6806129 C235.336448,42.6387742 235.308419,42.5837233 235.308419,42.4310487 Z M251.19119,47.638866 C250.968435,47.5412423 250.926392,47.4722452 250.926392,47.166162 C250.926392,46.4027892 250.982449,45.5689513 250.995726,45.3472796 C251.00974,45.1388201 251.051784,44.9861455 251.163899,44.9861455 C251.289291,44.9861455 251.303306,45.1109276 251.303306,45.2224975 C251.303306,45.4023305 251.358626,45.6944674 251.428698,45.9300853 C251.73554,46.9584366 252.558704,47.3327828 253.424648,47.3327828 C254.680783,47.3327828 255.294467,46.4857326 255.294467,45.7495183 C255.294467,45.0690889 255.084988,44.4304982 253.926954,43.5276631 L253.284503,43.0278007 C251.749555,41.8335627 251.219219,40.8617304 251.219219,39.7364896 C251.219219,38.20901 252.503383,37.1116616 254.443275,37.1116616 C254.973611,37.1116616 255.391831,37.1674466 255.726702,37.2232315 C255.964209,37.2643362 256.145659,37.3061749 256.29908,37.3480136 C256.424473,37.375906 256.494545,37.4177447 256.494545,37.5146344 C256.494545,37.6952014 256.438487,38.0981741 256.438487,39.1808423 C256.438487,39.4869254 256.397181,39.5977613 256.285066,39.5977613 C256.187703,39.5977613 256.145659,39.5140839 256.145659,39.3474631 C256.145659,39.222681 256.075587,38.7918158 255.782759,38.4314157 C255.573281,38.1671713 255.169075,37.7509863 254.261825,37.7509863 C253.229183,37.7509863 252.600747,38.3477383 252.600747,39.1808423 C252.600747,39.820167 252.921603,40.3060831 254.080375,41.1810258 L254.471304,41.4724287 C256.159674,42.7363978 256.759344,43.6942839 256.759344,45.014038 C256.759344,45.8192495 256.452501,46.7778695 255.447888,47.4304065 C254.750117,47.8744839 253.96826,48 253.229183,48 C252.419297,48 251.791598,47.9023764 251.19119,47.638866 Z M267.255412,41.3337003 C267.255412,39.222681 267.255412,38.8336545 267.227383,38.389577 C267.200092,37.9176071 267.059948,37.6812552 266.753105,37.611524 C266.599684,37.5704193 266.418234,37.5564731 266.250799,37.5564731 C266.111392,37.5564731 266.027306,37.5285806 266.027306,37.4177447 C266.027306,37.3340673 266.138683,37.3061749 266.362177,37.3061749 C266.892512,37.3061749 267.771733,37.3480136 268.176676,37.3480136 C268.525562,37.3480136 269.348725,37.3061749 269.87906,37.3061749 C270.06051,37.3061749 270.171888,37.3340673 270.171888,37.4177447 C270.171888,37.5285806 270.088539,37.5564731 269.949132,37.5564731 C269.808988,37.5564731 269.69761,37.5704193 269.530175,37.5975778 C269.153261,37.6673089 269.041883,37.9036609 269.013854,38.389577 C268.985825,38.8336545 268.985825,39.222681 268.985825,41.3337003 L268.985825,43.7779613 C268.985825,45.1248738 268.985825,46.2222222 269.041883,46.8189742 C269.083926,47.1940545 269.181289,47.4443527 269.600247,47.4994036 C269.794974,47.5272961 270.102554,47.5551885 270.311295,47.5551885 C270.465453,47.5551885 270.534788,47.5970273 270.534788,47.6667584 C270.534788,47.763648 270.42341,47.8054867 270.269989,47.8054867 C269.348725,47.8054867 268.469504,47.763648 268.09259,47.763648 C267.771733,47.763648 266.892512,47.8054867 266.334148,47.8054867 C266.152698,47.8054867 266.055335,47.763648 266.055335,47.6667584 C266.055335,47.5970273 266.111392,47.5551885 266.278828,47.5551885 C266.487569,47.5551885 266.655742,47.5272961 266.781134,47.4994036 C267.059948,47.4443527 267.144034,47.2080007 267.186077,46.805028 C267.255412,46.2222222 267.255412,45.1248738 267.255412,43.7779613 L267.255412,41.3337003 Z M284.463653,43.7779613 C284.463653,45.0551427 284.463653,46.1524911 284.533726,46.7499771 C284.575769,47.1390036 284.659118,47.4443527 285.078075,47.4994036 C285.27354,47.5272961 285.580382,47.5551885 285.789861,47.5551885 C285.943282,47.5551885 286.012616,47.5970273 286.012616,47.6667584 C286.012616,47.763648 285.901239,47.8054867 285.747818,47.8054867 C284.826553,47.8054867 283.947332,47.763648 283.557141,47.763648 C283.235547,47.763648 282.356326,47.8054867 281.797962,47.8054867 C281.61725,47.8054867 281.519149,47.763648 281.519149,47.6667584 C281.519149,47.5970273 281.575206,47.5551885 281.742642,47.5551885 C281.952121,47.5551885 282.119556,47.5272961 282.244948,47.4994036 C282.523762,47.4443527 282.607848,47.1390036 282.649892,46.7360308 C282.719226,46.1524911 282.719226,45.0551427 282.719226,43.7779613 L282.719226,38.0842279 C282.188891,38.0981741 281.323684,38.1253326 280.639928,38.1392788 C279.830779,38.1671713 279.495908,38.2369025 279.286429,38.5422516 C279.147022,38.7507111 279.07695,38.9173319 279.048921,39.0281677 C279.02163,39.1397376 278.979587,39.1947885 278.8955,39.1947885 C278.798137,39.1947885 278.770108,39.1257914 278.770108,38.9723828 C278.770108,38.7507111 279.035644,37.4867419 279.062936,37.375906 C279.104979,37.195339 279.147022,37.1116616 279.230371,37.1116616 C279.342487,37.1116616 279.481893,37.2503899 279.830779,37.2782824 C280.235722,37.3201211 280.76532,37.3480136 281.226321,37.3480136 L286.752431,37.3480136 C287.199417,37.3480136 287.506259,37.3061749 287.715001,37.2782824 C287.924479,37.2371777 288.036595,37.2092853 288.091915,37.2092853 C288.190016,37.2092853 288.20403,37.2922286 288.20403,37.5006881 C288.20403,37.792091 288.161987,38.7507111 288.161987,39.1118451 C288.147973,39.2505734 288.119944,39.3335168 288.036595,39.3335168 C287.924479,39.3335168 287.89645,39.2645197 287.883174,39.0560602 C287.883174,39.0142215 287.869159,38.9452243 287.869159,38.9033856 C287.84113,38.5422516 287.464216,38.1532251 286.222095,38.1253326 C285.859195,38.1113864 285.287554,38.0981741 284.463653,38.0842279 L284.463653,43.7779613 Z M300.183415,44.2080925 C300.183415,43.4586659 300.044008,43.1525828 299.862559,42.7503441 C299.765195,42.5279383 297.894638,39.4729792 297.406346,38.7507111 C297.05746,38.2369025 296.708575,37.8897147 296.443776,37.7370401 C296.262326,37.6394165 296.024818,37.5564731 295.857383,37.5564731 C295.746005,37.5564731 295.647904,37.5285806 295.647904,37.430957 C295.647904,37.3480136 295.746005,37.3061749 295.91344,37.3061749 C296.164225,37.3061749 297.210881,37.3480136 297.671882,37.3480136 C297.96471,37.3480136 298.537089,37.3061749 299.164788,37.3061749 C299.304194,37.3061749 299.374266,37.3480136 299.374266,37.430957 C299.374266,37.5146344 299.276903,37.5285806 299.067424,37.5843655 C298.941294,37.611524 298.87196,37.7230939 298.87196,37.8339297 C298.87196,37.9447656 298.941294,38.1113864 299.039395,38.3058996 C299.23486,38.7228186 301.188766,42.0699147 301.411522,42.4589412 C301.551666,42.1256996 303.30937,39.0700064 303.504834,38.6391412 C303.644241,38.3337921 303.700299,38.0981741 303.700299,37.9176071 C303.700299,37.7781448 303.644241,37.6254702 303.407471,37.5704193 C303.281341,37.5425268 303.155949,37.5146344 303.155949,37.430957 C303.155949,37.3340673 303.226021,37.3061749 303.393457,37.3061749 C303.85372,37.3061749 304.299969,37.3480136 304.704912,37.3480136 C305.011754,37.3480136 305.933018,37.3061749 306.198555,37.3061749 C306.351976,37.3061749 306.449339,37.3340673 306.449339,37.4177447 C306.449339,37.5146344 306.337961,37.5564731 306.18454,37.5564731 C306.045134,37.5564731 305.779597,37.611524 305.570118,37.7230939 C305.277291,37.8618222 305.12387,38.028443 304.817027,38.4035233 C304.356026,38.9591706 302.402858,42.2225892 302.151336,42.8193412 C301.941857,43.3199376 301.941857,43.7500688 301.941857,44.2080925 L301.941857,45.3472796 C301.941857,45.5689513 301.941857,46.1524911 301.9839,46.7360308 C302.011929,47.1390036 302.137321,47.4443527 302.556279,47.4994036 C302.751743,47.5272961 303.058586,47.5551885 303.25405,47.5551885 C303.407471,47.5551885 303.476806,47.5970273 303.476806,47.6667584 C303.476806,47.763648 303.365428,47.8054867 303.183978,47.8054867 C302.304757,47.8054867 301.425536,47.763648 301.049359,47.763648 C300.700474,47.763648 299.820515,47.8054867 299.304194,47.8054867 C299.10873,47.8054867 298.997352,47.7775943 298.997352,47.6667584 C298.997352,47.5970273 299.067424,47.5551885 299.220845,47.5551885 C299.41631,47.5551885 299.583745,47.5272961 299.709137,47.4994036 C299.988688,47.4443527 300.114081,47.1390036 300.142109,46.7360308 C300.183415,46.1524911 300.183415,45.5689513 300.183415,45.3472796 L300.183415,44.2080925 Z" id="liberty-logo"></path>
                </g>
            </g>
        </g>
    </g>
</svg>