<?xml version="1.0" encoding="UTF-8"?>
<svg width="15px" height="15px" viewBox="0 0 15 15" version="1.1" xmlns="http://www.w3.org/2000/svg" xmlns:xlink="http://www.w3.org/1999/xlink">
    <!-- Generator: Sketch Beta 53 (72224) - https://sketchapp.com -->
    <title>Search</title>
    <desc>Created with Sketch Beta.</desc>
    <g id="Symbols" stroke="none" stroke-width="1" fill="none" fill-rule="evenodd">
        <g id="Header/green-nav-search" transform="translate(-1365.000000, -25.000000)" fill="#FFF">
            <path d="M1379.8618,37.8462878 L1377.24505,35.2304892 C1377.90803,34.1961374 1378.2984,32.9689726 1378.2984,31.6487257 C1378.2984,27.9767295 1375.32167,25 1371.64873,25 C1367.97673,25 1365,27.9767295 1365,31.6487257 C1365,35.3207219 1367.97673,38.2974513 1371.64873,38.2974513 C1372.96897,38.2974513 1374.19614,37.908026 1375.23049,37.245053 L1377.84629,39.8618015 C1378.03055,40.0460662 1378.33354,40.0460662 1378.51781,39.8618015 L1379.8618,38.5178091 C1380.04607,38.3335444 1380.04607,38.0305525 1379.8618,37.8462878 L1379.8618,37.8462878 Z M1371.64873,36.3978154 C1369.03103,36.3978154 1366.90059,34.2673738 1366.90059,31.6487257 C1366.90059,29.0300776 1369.03103,26.8996359 1371.64873,26.8996359 C1374.26737,26.8996359 1376.39782,29.0300776 1376.39782,31.6487257 C1376.39782,34.2673738 1374.26737,36.3978154 1371.64873,36.3978154 L1371.64873,36.3978154 Z" id="Search"></path>
        </g>
    </g>
</svg>
